<svg width="16" height="11" viewBox="0 0 16 11" fill="none" xmlns="http://www.w3.org/2000/svg">
<path d="M7.63109 2.95769C7.12827 2.95769 6.63673 3.10679 6.21865 3.38615C5.80057 3.6655 5.47471 4.06256 5.28229 4.5271C5.08987 4.99165 5.03952 5.50283 5.13762 5.99599C5.23571 6.48915 5.47785 6.94215 5.8334 7.2977C6.18895 7.65325 6.64195 7.89538 7.13511 7.99348C7.62827 8.09157 8.13944 8.04123 8.60399 7.8488C9.06854 7.65638 9.4656 7.33053 9.74495 6.91244C10.0243 6.49436 10.1734 6.00283 10.1734 5.50001C10.1734 4.82574 9.90556 4.17909 9.42878 3.70232C8.952 3.22554 8.30535 2.95769 7.63109 2.95769ZM7.63109 7.0254C7.32939 7.0254 7.03448 6.93594 6.78363 6.76832C6.53278 6.60071 6.33726 6.36248 6.22181 6.08375C6.10636 5.80502 6.07615 5.49832 6.13501 5.20242C6.19386 4.90652 6.33914 4.63472 6.55247 4.42139C6.7658 4.20806 7.0376 4.06278 7.3335 4.00393C7.6294 3.94507 7.9361 3.97528 8.21483 4.09073C8.49356 4.20618 8.73179 4.4017 8.89941 4.65255C9.06702 4.90339 9.15648 5.19831 9.15648 5.50001C9.15648 5.90457 8.99577 6.29256 8.7097 6.57862C8.42364 6.86469 8.03565 7.0254 7.63109 7.0254ZM12.3159 7.4792C12.0975 7.99566 11.7951 8.47243 11.4211 8.89019C11.3305 8.9882 11.205 9.04667 11.0717 9.05298C10.9384 9.05929 10.8079 9.01295 10.7085 8.92394C10.6091 8.83493 10.5486 8.7104 10.5402 8.57721C10.5318 8.44403 10.576 8.31286 10.6634 8.21203C11.3311 7.46658 11.7003 6.50104 11.7003 5.50033C11.7003 4.49961 11.3311 3.53407 10.6634 2.78862C10.6177 2.73909 10.5822 2.68094 10.5591 2.61756C10.536 2.55418 10.5258 2.48684 10.529 2.41946C10.5322 2.35209 10.5487 2.28602 10.5777 2.2251C10.6067 2.16419 10.6475 2.10965 10.6977 2.06467C10.748 2.01968 10.8067 1.98514 10.8704 1.96306C10.9342 1.94098 11.0017 1.93181 11.069 1.93607C11.1363 1.94033 11.2021 1.95795 11.2625 1.98789C11.323 2.01783 11.3769 2.05949 11.4211 2.11046C12.0631 2.82888 12.488 3.71478 12.6464 4.66516C12.8048 5.61555 12.6902 6.59138 12.3159 7.4792ZM3.88117 3.91678C3.58116 4.62696 3.48915 5.40777 3.61586 6.16823C3.74256 6.92869 4.08277 7.63749 4.59683 8.21203C4.68425 8.31286 4.72851 8.44403 4.72008 8.57721C4.71165 8.7104 4.65119 8.83493 4.55176 8.92394C4.45232 9.01295 4.32188 9.05929 4.18858 9.05298C4.05527 9.04667 3.9298 8.9882 3.83922 8.89019C3.00444 7.9584 2.54283 6.75136 2.54283 5.50033C2.54283 4.24929 3.00444 3.04225 3.83922 2.11046C3.92915 2.00974 4.05541 1.94887 4.19021 1.94124C4.32502 1.93362 4.45734 1.97985 4.55806 2.06978C4.65878 2.15971 4.71965 2.28597 4.72728 2.42078C4.7349 2.55559 4.68867 2.68791 4.59874 2.78862C4.29874 3.12236 4.05625 3.5036 3.88117 3.91678ZM15.258 5.50001C15.2611 7.49683 14.4782 9.41465 13.0786 10.8389C13.0323 10.8884 12.9766 10.9281 12.9147 10.9558C12.8528 10.9834 12.786 10.9984 12.7183 10.9999C12.6505 11.0014 12.5831 10.9893 12.5201 10.9643C12.4571 10.9393 12.3997 10.902 12.3513 10.8546C12.3029 10.8071 12.2645 10.7504 12.2383 10.6879C12.2121 10.6254 12.1987 10.5583 12.1988 10.4905C12.199 10.4227 12.2127 10.3556 12.2391 10.2932C12.2656 10.2308 12.3042 10.1743 12.3528 10.127C13.5647 8.89233 14.2436 7.23135 14.2436 5.50128C14.2436 3.77121 13.5647 2.11023 12.3528 0.875529C12.2581 0.779277 12.2055 0.649335 12.2065 0.514288C12.2076 0.379241 12.2623 0.250151 12.3585 0.155417C12.4548 0.0606824 12.5847 0.00806386 12.7198 0.00913661C12.8548 0.0102094 12.9839 0.0648856 13.0786 0.161137C14.4782 1.58536 15.2611 3.50318 15.258 5.50001ZM2.90937 10.1258C2.95619 10.1734 2.99317 10.2298 3.01819 10.2918C3.04321 10.3537 3.05579 10.42 3.0552 10.4868C3.05461 10.5536 3.04086 10.6197 3.01475 10.6812C2.98864 10.7427 2.95067 10.7984 2.90301 10.8452C2.85535 10.8921 2.79894 10.929 2.73699 10.9541C2.67504 10.9791 2.60877 10.9917 2.54196 10.9911C2.47515 10.9905 2.40911 10.9767 2.34761 10.9506C2.28611 10.9245 2.23036 10.8865 2.18353 10.8389C0.784104 9.41421 0 7.49703 0 5.50001C0 3.50299 0.784104 1.58581 2.18353 0.161137C2.22984 0.111631 2.28557 0.0718826 2.34746 0.0442304C2.40935 0.0165783 2.47615 0.00158022 2.54392 0.000118276C2.61169 -0.00134367 2.67906 0.0107599 2.74209 0.0357174C2.80511 0.0606749 2.86251 0.0979825 2.91091 0.145446C2.9593 0.192909 2.99772 0.249571 3.0239 0.312098C3.05008 0.374624 3.06349 0.441755 3.06334 0.509541C3.0632 0.577326 3.04951 0.644399 3.02306 0.706815C2.99662 0.76923 2.95796 0.825728 2.90937 0.872986C1.69748 2.10769 1.01854 3.76867 1.01854 5.49874C1.01854 7.22881 1.69748 8.88978 2.90937 10.1245V10.1258Z" fill="#1C1C1C"/>
</svg>
