<svg width="14" height="13" viewBox="0 0 14 13" fill="none" xmlns="http://www.w3.org/2000/svg">
<path d="M13.4422 12.209C12.4533 10.4993 10.9294 9.27341 9.15089 8.69226C10.0306 8.16856 10.7141 7.37056 11.0964 6.42081C11.4787 5.47106 11.5386 4.42208 11.2671 3.43495C10.9955 2.44783 10.4074 1.57714 9.59306 0.956607C8.77875 0.336073 7.78325 0 6.75945 0C5.73564 0 4.74014 0.336073 3.92583 0.956607C3.11151 1.57714 2.52341 2.44783 2.25183 3.43495C1.98025 4.42208 2.04021 5.47106 2.4225 6.42081C2.80479 7.37056 3.48828 8.16856 4.368 8.69226C2.58951 9.27276 1.06556 10.4987 0.0766434 12.209C0.0403781 12.2681 0.0163237 12.3339 0.00589919 12.4025C-0.00452527 12.4711 -0.00110857 12.541 0.0159477 12.6083C0.033004 12.6755 0.0633544 12.7387 0.105208 12.794C0.147062 12.8493 0.199571 12.8957 0.259638 12.9304C0.319705 12.9651 0.386112 12.9874 0.454942 12.996C0.523772 13.0046 0.593631 12.9993 0.660396 12.9805C0.727161 12.9617 0.78948 12.9297 0.843677 12.8864C0.897874 12.8431 0.94285 12.7894 0.975952 12.7284C2.19927 10.6143 4.36151 9.35197 6.75945 9.35197C9.15738 9.35197 11.3196 10.6143 12.5429 12.7284C12.576 12.7894 12.621 12.8431 12.6752 12.8864C12.7294 12.9297 12.7917 12.9617 12.8585 12.9805C12.9253 12.9993 12.9951 13.0046 13.0639 12.996C13.1328 12.9874 13.1992 12.9651 13.2593 12.9304C13.3193 12.8957 13.3718 12.8493 13.4137 12.794C13.4555 12.7387 13.4859 12.6755 13.5029 12.6083C13.52 12.541 13.5234 12.4711 13.513 12.4025C13.5026 12.3339 13.4785 12.2681 13.4422 12.209ZM3.12325 4.67687C3.12325 3.9577 3.33651 3.25468 3.73606 2.65671C4.13561 2.05874 4.70351 1.59268 5.36793 1.31747C6.03236 1.04225 6.76348 0.970243 7.46883 1.11055C8.17418 1.25085 8.82209 1.59716 9.33062 2.10569C9.83915 2.61422 10.1855 3.26213 10.3258 3.96748C10.4661 4.67284 10.3941 5.40395 10.1188 6.06838C9.84363 6.73281 9.37757 7.3007 8.7796 7.70025C8.18164 8.0998 7.47862 8.31306 6.75945 8.31306C5.79538 8.31203 4.8711 7.9286 4.18941 7.24691C3.50771 6.56521 3.12428 5.64093 3.12325 4.67687Z" fill="#1C1C1C"/>
</svg>
